HIERARCHY
ROOT Hips
{
  OFFSET 13.6774 106.653 -34.4427
  CHANNELS 6 Xposition Yposition Zposition Zrotation Xrotation Yrotation
  JOINT ToSpine
  {
    OFFSET -2.69724 7.43032 -0.144315
    CHANNELS 3 Zrotation Xrotation Yrotation
    JOINT Spine
    {
      OFFSET -0.0310711 10.7595 1.96963
      CHANNELS 3 Zrotation Xrotation Yrotation
      JOINT Spine1
      {
        OFFSET 19.9056 3.91189 0.764692
        CHANNELS 3 Zrotation Xrotation Yrotation
        JOINT Neck
        {
          OFFSET 25.9749 7.03908 -0.130764
          CHANNELS 3 Zrotation Xrotation Yrotation
          JOINT Head
          {
            OFFSET 9.52751 0.295786 -0.907742
            CHANNELS 3 Zrotation Xrotation Yrotation
            End Site
            {
              OFFSET 16.4037 0.713936 2.7358
            }
          }
        }
        JOINT LeftShoulder
        {
          OFFSET 17.7449 4.33886 11.7777
          CHANNELS 3 Zrotation Xrotation Yrotation
          JOINT LeftArm
          {
            OFFSET 0.911315 1.27913 9.80584
            CHANNELS 3 Zrotation Xrotation Yrotation
            JOINT LeftForeArm
            {
              OFFSET 28.6126 1.18197 -3.53199
              CHANNELS 3 Zrotation Xrotation Yrotation
              JOINT LeftHand
              {
                OFFSET 27.5088 0.0218783 0.327423
                CHANNELS 3 Zrotation Xrotation Yrotation
                End Site
                {
                  OFFSET 18.6038 -0.000155887 0.382096
                }
              }
            }
          }
        }
        JOINT RightShoulder
        {
          OFFSET 17.1009 2.89543 -12.2328
          CHANNELS 3 Zrotation Xrotation Yrotation
          JOINT RightArm
          {
            OFFSET 1.4228 0.178766 -10.211
            CHANNELS 3 Zrotation Xrotation Yrotation
            JOINT RightForeArm
            {
              OFFSET 28.733 1.87905 2.64907
              CHANNELS 3 Zrotation Xrotation Yrotation
              JOINT RightHand
              {
                OFFSET 27.4588 0.290562 -0.101845
                CHANNELS 3 Zrotation Xrotation Yrotation
                End Site
                {
                  OFFSET 17.8396 -0.255518 -0.000602873
                }
              }
            }
          }
        }
      }
    }
  }
  JOINT LeftUpLeg
  {
    OFFSET -5.61296 -2.22332 -10.2353
    CHANNELS 3 Zrotation Xrotation Yrotation
    JOINT LeftLeg
    {
      OFFSET 2.56703 -44.7417 -7.93097
      CHANNELS 3 Zrotation Xrotation Yrotation
      JOINT LeftFoot
      {
        OFFSET 3.16933 -46.5642 -3.96578
        CHANNELS 3 Zrotation Xrotation Yrotation
        JOINT LeftToeBase
        {
          OFFSET 0.346054 -6.02161 12.8035
          CHANNELS 3 Zrotation Xrotation Yrotation
          End Site
          {
            OFFSET 0.134235 -1.35082 5.13018
          }
        }
      }
    }
  }
  JOINT RightUpLeg
  {
    OFFSET -5.7928 -1.72406 10.6446
    CHANNELS 3 Zrotation Xrotation Yrotation
    JOINT RightLeg
    {
      OFFSET -2.57161 -44.7178 -7.85259
      CHANNELS 3 Zrotation Xrotation Yrotation
      JOINT RightFoot
      {
        OFFSET -3.10148 -46.5936 -4.03391
        CHANNELS 3 Zrotation Xrotation Yrotation
        JOINT RightToeBase
        {
          OFFSET -0.0828122 -6.13587 12.8035
          CHANNELS 3 Zrotation Xrotation Yrotation
          End Site
          {
            OFFSET -0.131328 -1.35082 5.13018
          }
        }
      }
    }
  }
}
MOTION
Frames: 10
Frame Time: 0.03333333333333333
0.0000 93.1000 0.0000 -71.0813 -32.1922 -166.2049 -70.9990 -0.2667 88.0094 94.9152 71.9955 -7.7998 -2.4323 22.4219 2.6179 -150.2172 -0.0047 -168.2613 -153.3758 38.2127 -170.3561 0.7109 -10.5091 -14.9735 -107.6612 13.1766 -90.7284 -2.9938 -0.4700 -79.6944 -0.1820 -0.5891 0.1376 -0.5934 4.9680 14.6066 -54.7821 -24.4984 167.0211 6.6091 2.3567 109.2011 -0.1223 0.3085 -0.1956 -43.4099 22.0102 104.0122 -4.5449 53.2726 -3.6292 -2.7615 -10.7728 -1.3070 1.6257 -8.2923 13.3515 -49.6682 -20.5225 88.4594 -0.1475 35.9602 -4.8403 -4.8548 -2.9998 -0.1369 0.5988 -7.3918 -8.6485 
0.0000 93.1000 0.0000 -71.1199 -32.2239 -167.1525 -70.9999 -0.2088 88.0108 94.0992 72.0736 -6.5625 -1.8457 22.4441 1.7372 -149.3470 0.3484 -169.1414 -152.0409 38.2327 -171.1371 0.5315 -10.0230 -15.4029 -112.7375 12.3676 -90.6546 -0.1817 -0.0766 -74.1554 0.0055 -0.3871 0.0971 -0.6387 4.8161 14.2811 -55.8026 -24.6965 167.9255 6.5849 2.5508 108.8042 -0.1795 0.2133 -0.3363 -43.8903 21.8877 103.8493 -3.7338 51.2395 -3.7312 -3.2725 -9.1391 -1.1150 1.7231 -8.2912 13.3076 -49.2480 -21.7286 87.1123 -1.1260 34.1560 1.2361 -3.7148 1.1803 -0.4012 0.7846 -8.0329 -9.3510 
0.0000 93.1000 0.0000 -70.9634 -31.8155 -167.0476 -70.9994 0.1984 88.0107 93.9142 71.9443 -6.7303 -1.1608 22.8186 0.3250 -147.9293 0.1138 -170.9769 -149.0446 37.9422 -173.5464 0.0829 -9.9624 -16.0224 -116.6169 11.2065 -90.6993 1.4368 0.3898 -69.1811 -0.0896 0.1306 0.0968 -0.8235 4.7938 14.4206 -57.0108 -25.3116 168.8214 6.5464 2.2841 107.8576 -0.4158 -0.3328 -0.8623 -44.0605 22.4355 104.5110 -3.5218 49.4788 -3.6979 -3.3287 -7.3440 -0.9083 1.3691 -7.6749 11.7355 -47.9448 -21.6287 88.9170 -1.5508 34.1642 8.8386 -2.5468 4.9290 -0.4310 1.5500 -13.2879 -11.4817 
0.0000 93.1000 0.0000 -71.0260 -32.0007 -168.1419 -70.9973 0.0329 88.0112 93.1438 71.8909 -6.2140 -1.2640 22.8835 -0.5658 -147.6532 0.1881 -171.9396 -148.1528 37.8657 -173.2865 0.3656 -9.9538 -16.9621 -119.9514 9.5134 -89.8644 3.0983 1.3266 -65.1615 -0.0185 -0.0060 0.1964 -0.5486 4.4396 13.5667 -58.2453 -26.1124 169.9800 6.2596 1.8300 107.4300 -0.0757 -0.2120 -0.5820 -44.5723 22.6079 103.6924 -2.7228 47.2557 -2.4599 -3.5496 -5.0079 -0.8126 0.9821 -6.7708 8.7353 -47.7909 -20.3654 92.1298 0.5578 35.9045 3.1836 -2.0041 4.2191 -0.2912 1.9707 -16.8792 -11.0670 
0.0000 93.1000 0.0000 -69.9999 -32.9956 -167.8770 -70.9976 -0.0356 88.0110 91.8413 71.1335 -4.7191 -0.5873 22.2580 -0.8828 -147.9380 0.4836 -169.9508 -150.4297 37.7960 -172.5444 0.4372 -9.9807 -17.9633 -122.8626 8.0294 -88.5699 4.0938 1.9285 -62.8897 0.1295 0.0056 0.4091 -0.5065 4.6268 11.6487 -58.0751 -28.1612 172.1809 6.1836 2.1770 106.7035 0.0236 -0.2349 -0.4900 -44.6792 23.2933 102.5731 -3.5256 45.0198 -1.3058 -4.1078 -2.1507 -0.4570 1.4139 -6.6466 6.2994 -47.7092 -19.3465 92.2944 0.5491 37.9469 0.6107 -2.6533 3.0667 0.0669 2.4964 -20.3538 -9.6738 
0.0000 93.1000 0.0000 -69.8616 -34.2047 -166.9210 -70.9975 0.0827 88.0120 89.0474 71.1563 -2.6854 -0.2712 21.9411 -0.8695 -148.1905 0.8094 -168.8957 -151.4656 37.8163 -171.2179 1.0119 -9.9899 -19.1790 -125.0288 7.0250 -87.5334 5.0053 2.5721 -62.0700 0.2122 0.0623 0.6366 -0.1128 4.5930 10.7613 -58.2942 -28.7573 174.0340 6.3341 1.8872 106.3250 0.0216 -0.2635 -0.2500 -45.0614 23.9493 100.1622 -2.3892 42.2205 -0.0818 -3.9729 1.0333 -0.4916 0.9009 -4.7150 3.0603 -48.2743 -17.9603 90.0811 0.6501 38.9876 0.9960 -2.6585 0.0399 0.4304 2.8842 -20.4535 -8.1917 
0.0000 93.1000 0.0000 -69.9712 -35.0814 -167.1157 -71.0018 0.2386 88.0109 89.0136 70.7788 -2.4828 -0.1965 21.2158 -1.3059 -148.2888 1.1585 -168.8884 -150.1986 38.2145 -170.8125 0.1005 -10.1743 -20.7703 -126.7511 6.2186 -86.7483 5.5713 2.7577 -61.2311 -0.3856 0.3251 0.8369 -0.5531 4.6011 10.8315 -58.7845 -29.3647 172.9716 6.9790 1.8926 105.9744 -0.0890 -0.4603 -0.5506 -44.6572 24.7773 97.7673 -1.7985 40.3581 2.3119 -3.8579 3.8796 0.1747 0.5542 -4.0193 2.7055 -48.8387 -16.2123 87.6262 1.0960 40.1610 -2.3029 -4.0857 -2.2673 0.4369 1.6765 -19.2666 -6.2942 
0.0000 93.1000 0.0000 -69.7827 -36.0364 -165.7790 -71.0044 0.3282 88.0127 89.9742 70.6439 -4.1531 -0.1924 20.8151 -1.3543 -148.2271 1.1234 -168.9059 -151.4934 38.5052 -171.2811 -0.0738 -10.2628 -21.7211 -128.1765 6.1912 -85.5366 4.8806 2.4723 -61.0608 -0.6877 0.3997 1.0097 -0.6419 4.7221 10.5756 -58.1342 -29.8260 173.6825 7.5250 2.1134 105.3167 -0.0198 -0.4707 -0.5526 -43.7779 26.0522 95.9058 -1.1210 38.4092 4.4297 -4.0071 5.7665 0.5268 -0.9190 -1.2208 2.6726 -48.8442 -14.3968 85.8819 1.1038 41.3374 -3.2414 -4.2408 -4.8931 0.1719 1.5702 -19.1727 -7.2466 
0.0000 93.1000 0.0000 -70.2177 -37.3401 -165.7766 -71.0045 0.3001 88.0131 92.9780 70.4146 -6.7833 -0.1267 20.8545 -1.5542 -148.2229 0.9790 -170.8943 -150.4012 37.9722 -173.4467 -0.1738 -10.7196 -22.2292 -127.9016 7.2496 -84.7252 5.1572 2.1854 -60.9091 -0.8821 0.3291 1.0450 -0.7626 5.2414 11.7425 -57.9911 -29.3233 172.4811 7.3240 2.2960 106.1145 -0.1248 -0.3850 -0.4178 -41.8983 26.9652 96.1174 -1.1633 39.0987 7.1209 -4.9277 5.2358 0.7236 -1.9683 1.7048 2.5630 -48.9122 -13.6519 84.4272 0.8826 42.8674 -1.7368 -3.3738 -6.7156 0.0776 1.4067 -18.6304 -8.2402 
0.0000 93.1000 0.0000 -69.6296 -39.2738 -166.0241 -71.0018 0.3239 88.0137 95.1763 69.9348 -8.8566 -0.3655 20.7779 -1.4997 -147.2584 1.0749 -173.2903 -148.2108 38.1281 -174.0630 0.2640 -10.8990 -22.8003 -129.5102 8.0622 -83.5621 6.5272 2.7363 -61.9062 -0.8438 0.3105 0.9194 -0.5381 5.4240 12.6261 -58.0378 -29.2004 171.4045 6.9394 2.0414 105.8523 -0.3078 -0.3906 -0.2825 -40.1440 26.9115 97.1228 -2.5257 42.3569 5.2553 -5.9042 0.2542 0.2366 -1.5594 1.1616 3.4365 -48.9066 -13.8384 81.3240 2.0733 46.1388 -2.1913 -4.9922 -8.5169 0.5909 1.4734 -17.6319 -7.7675 
